<?xml version="1.0" encoding="iso-8859-1"?>
<!-- Generator: Adobe Illustrator 19.0.0, SVG Export Plug-In . SVG Version: 6.00 Build 0)  -->
<svg version="1.1" id="Capa_1" xmlns="http://www.w3.org/2000/svg" xmlns:xlink="http://www.w3.org/1999/xlink" x="0px" y="0px"
	 viewBox="0 0 512 512" style="enable-background:new 0 0 512 512;" xml:space="preserve">
<path style="fill:#57555C;" d="M256,0C115.3,0,0,115.3,0,256s115.3,256,256,256s256-115.3,256-256S396.7,0,256,0z"/>
<path style="fill:#3C3A41;" d="M512,256c0,140.7-115.3,256-256,256V0C396.7,0,512,115.3,512,256z"/>
<path style="fill:#FEDB41;" d="M256,31C131.8,31,31,131.8,31,256s100.8,226,225,226s225-101.8,225-226S380.2,31,256,31z"/>
<path style="fill:#FCBF29;" d="M481,256c0,124.2-100.8,226-225,226V31C380.2,31,481,131.8,481,256z"/>
<path style="fill:#57555C;" d="M362.199,92.5c-31.8-20.7-69-30.901-106.199-30.901S181.601,71.8,149.801,92.5
	c-7.202,4.799-9.3,14.7-3.9,21.599l54.3,72.301c4.499,6,12.599,7.8,19.2,4.2c11.1-6.301,24-9.6,36.599-9.6s25.499,3.3,36.599,9.6
	c6.601,3.6,14.702,1.8,19.2-4.2l54.3-72.301C371.499,107.199,369.401,97.299,362.199,92.5z"/>
<path style="fill:#3C3A41;" d="M323.778,422.318l-35.508-83.13c-2.944-6.899-0.337-14.912,6.094-18.765
	c22.573-13.506,36.27-37.192,36.621-63.384c0.103-7.515,5.742-13.784,13.213-14.692l89.766-10.811
	c8.601-1.04,16.313,5.439,16.772,14.136c3.985,77.37-37.227,148.84-106.333,184.116
	C336.693,433.697,327.244,430.395,323.778,422.318z"/>
<g>
	<path style="fill:#57555C;" d="M167.597,429.789C98.614,394.576,57.272,323.181,61.264,245.673
		c0.457-8.644,8.063-15.128,16.772-14.136l89.766,10.811c7.471,0.908,13.11,7.178,13.213,14.692
		c0.352,26.191,14.048,49.878,36.621,63.384c6.431,3.853,9.038,11.865,6.094,18.765l-35.508,83.13
		C184.76,430.385,175.314,433.701,167.597,429.789z"/>
	<path style="fill:#57555C;" d="M256,211c-24.901,0-45,20.099-45,45c0,24.899,20.099,45,45,45s45-20.101,45-45
		C301,231.099,280.901,211,256,211z"/>
</g>
<g>
	<path style="fill:#3C3A41;" d="M301,256c0,24.899-20.099,45-45,45v-90C280.901,211,301,231.099,301,256z"/>
	<path style="fill:#3C3A41;" d="M366.099,114.099L311.8,186.4c-4.499,6-12.599,7.8-19.2,4.2c-11.1-6.301-24-9.6-36.599-9.6V61.599
		c37.2,0,74.399,10.201,106.199,30.901C369.401,97.299,371.499,107.199,366.099,114.099z"/>
</g>
<g>
</g>
<g>
</g>
<g>
</g>
<g>
</g>
<g>
</g>
<g>
</g>
<g>
</g>
<g>
</g>
<g>
</g>
<g>
</g>
<g>
</g>
<g>
</g>
<g>
</g>
<g>
</g>
<g>
</g>
</svg>
